<?xml version="1.0" standalone="no"?>
<svg xmlns="http://www.w3.org/2000/svg" viewBox="0 0 68 29" width="68" height="29"><path fill="#ffffff" fill-rule="nonzero" d="M10.32 0L13.80 0L8.42 16.13Q7.99 17.23 6.89 17.23L6.89 17.23Q5.74 17.23 5.30 16.13L5.30 16.13L0 0L3.46 0L6.89 11.14L10.32 0ZM28.49 17.09L28.49 6.89L25.42 13.37Q24.74 14.66 23.75 14.66Q22.75 14.66 22.08 13.30L22.08 13.30L18.96 6.89L18.96 17.09L15.62 17.09L15.62 0L18.91 0L23.74 9.86L28.54 0L31.82 0L31.82 17.09L28.49 17.09ZM45.36 10.97L45.36 10.97L37.37 10.97Q37.37 12.84 37.96 13.70Q38.54 14.57 40.32 14.57L40.32 14.57Q41.47 14.57 42.02 13.84Q42.58 13.10 42.58 12.43L42.58 12.43L45.38 12.43Q45.38 15 44.00 16.20Q42.62 17.40 40.36 17.40Q38.09 17.40 36.84 16.75L36.84 16.75Q34.27 15.43 34.27 9.74L34.27 9.74Q34.27 6.36 35.74 4.79Q37.20 3.22 40.20 3.22L40.20 3.22Q45.41 3.22 45.41 9L45.41 9Q45.41 9.62 45.36 10.97ZM37.44 8.83L37.44 8.83L42.58 8.83Q42.58 7.25 41.98 6.53Q41.38 5.81 40.14 5.81Q38.90 5.81 38.17 6.54Q37.44 7.27 37.44 8.83ZM58.51 10.97L58.51 10.97L50.52 10.97Q50.52 12.84 51.11 13.70Q51.70 14.57 53.47 14.57L53.47 14.57Q54.62 14.57 55.18 13.84Q55.73 13.10 55.73 12.43L55.73 12.43L58.54 12.43Q58.54 15 57.16 16.20Q55.78 17.40 53.51 17.40Q51.24 17.40 49.99 16.75L49.99 16.75Q47.42 15.43 47.42 9.74L47.42 9.74Q47.42 6.36 48.89 4.79Q50.35 3.22 53.35 3.22L53.35 3.22Q58.56 3.22 58.56 9L58.56 9Q58.56 9.62 58.51 10.97ZM50.59 8.83L50.59 8.83L55.73 8.83Q55.73 7.25 55.13 6.53Q54.53 5.81 53.29 5.81Q52.06 5.81 51.32 6.54Q50.59 7.27 50.59 8.83ZM67.25 14.45L67.25 17.09L65.30 17.09Q63.53 17.09 62.60 16.03Q61.68 14.98 61.68 13.51L61.68 13.51L61.68 6.31L60.36 6.31L60.36 3.94L61.68 3.94L61.68 1.25L64.80 1.25L64.80 3.94L67.01 3.94L67.01 6.31L64.80 6.31L64.80 13.32Q64.80 14.45 65.88 14.45L65.88 14.45L67.25 14.45Z"></path><line x1="20.174400000000002" y1="27.400000000000002" x2="47.073600000000006" y2="27.400000000000002" stroke="#ffffff" stroke-linecap="round"></line></svg>